<svg width="23" height="26" viewBox="0 0 23 26" fill="none" xmlns="http://www.w3.org/2000/svg">
<path fill-rule="evenodd" clip-rule="evenodd" d="M7.0912 1.7822C8.8142 1.32626 10.6429 0.914917 11.7382 0.914917C12.8318 0.914917 14.6622 1.32626 16.3852 1.7822C17.922 2.19482 19.4489 2.64374 20.9645 3.12856C21.8367 3.40609 22.4942 4.15774 22.6214 5.0845C23.568 12.0178 21.3725 17.1555 18.7112 20.5552C17.5771 22.0143 16.2306 23.295 14.7167 24.3548C14.1903 24.7235 13.6338 25.0473 13.0532 25.3228C12.6071 25.5277 12.1314 25.6945 11.7382 25.6945C11.345 25.6945 10.8693 25.5277 10.4232 25.3228C9.84244 25.0476 9.28595 24.7237 8.75969 24.3548C7.24639 23.2949 5.90049 22.0141 4.76687 20.5552C2.10224 17.1555 -0.0915831 12.0178 0.854998 5.0845C0.918286 4.63528 1.1075 4.21317 1.40073 3.86702C1.69396 3.52087 2.07922 3.26484 2.51193 3.12856C4.02753 2.64375 5.55438 2.19484 7.0912 1.7822ZM12.589 13.1544C13.1336 12.9551 13.5912 12.571 13.8818 12.0691C14.1725 11.5672 14.2779 10.9792 14.1796 10.4076C14.0814 9.83598 13.7857 9.31693 13.3442 8.94086C12.9026 8.56478 12.3432 8.35551 11.7632 8.34949C11.1832 8.34347 10.6195 8.54109 10.1702 8.90792C9.72098 9.27475 9.41463 9.78756 9.30455 10.357C9.19447 10.9265 9.28763 11.5165 9.56782 12.0243C9.848 12.5322 10.2974 12.9257 10.8379 13.1362C10.803 13.2072 10.7785 13.2829 10.7652 13.3609L10.2151 16.6648C10.1954 16.7831 10.2017 16.9042 10.2336 17.0198C10.2655 17.1354 10.3221 17.2427 10.3996 17.3342C10.4771 17.4257 10.5736 17.4992 10.6824 17.5496C10.7912 17.6001 10.9096 17.6262 11.0295 17.6263H12.4089C12.5293 17.6263 12.6482 17.6001 12.7574 17.5494C12.8666 17.4986 12.9634 17.4246 13.041 17.3326C13.1186 17.2405 13.1751 17.1326 13.2066 17.0164C13.2381 16.9002 13.2438 16.7785 13.2233 16.6599L12.6501 13.3559C12.6384 13.2864 12.6179 13.2187 12.589 13.1544Z" fill="#05114F"/>
</svg>
