<svg width="30" height="30" viewBox="0 0 30 30" fill="none" xmlns="http://www.w3.org/2000/svg">
<path fill-rule="evenodd" clip-rule="evenodd" d="M18.4737 4.57651C18.6606 4.63871 18.8335 4.73715 18.9824 4.86619C19.1313 4.99522 19.2534 5.15233 19.3415 5.32854C19.4297 5.50476 19.4823 5.69661 19.4963 5.89315C19.5103 6.0897 19.4855 6.28707 19.4232 6.47401L13.4232 24.474C13.2975 24.8515 13.0269 25.1637 12.6711 25.3417C12.3152 25.5198 11.9032 25.5492 11.5257 25.4235C11.1481 25.2978 10.836 25.0273 10.6579 24.6714C10.4799 24.3156 10.4505 23.9035 10.5762 23.526L16.5762 5.52601C16.6384 5.33904 16.7368 5.16617 16.8659 5.01726C16.9949 4.86835 17.152 4.74632 17.3282 4.65814C17.5044 4.56997 17.6963 4.51738 17.8928 4.50337C18.0894 4.48936 18.2867 4.51421 18.4737 4.57651V4.57651ZM8.56018 9.43951C8.84139 9.7208 8.99936 10.1023 8.99936 10.5C8.99936 10.8978 8.84139 11.2792 8.56018 11.5605L5.12068 15L8.56018 18.4395C8.70344 18.5779 8.81772 18.7434 8.89633 18.9264C8.97495 19.1094 9.01632 19.3062 9.01806 19.5054C9.01979 19.7046 8.98183 19.9021 8.90641 20.0864C8.83099 20.2708 8.71961 20.4383 8.57877 20.5791C8.43793 20.7199 8.27046 20.8313 8.08611 20.9067C7.90177 20.9822 7.70425 21.0201 7.50508 21.0184C7.30591 21.0167 7.10908 20.9753 6.92607 20.8967C6.74307 20.818 6.57755 20.7038 6.43918 20.5605L1.93918 16.0605C1.65797 15.7792 1.5 15.3978 1.5 15C1.5 14.6023 1.65797 14.2208 1.93918 13.9395L6.43918 9.43951C6.72047 9.1583 7.10193 9.00033 7.49968 9.00033C7.89743 9.00033 8.27889 9.1583 8.56018 9.43951V9.43951ZM21.4392 9.43951C21.7205 9.1583 22.1019 9.00033 22.4997 9.00033C22.8974 9.00033 23.2789 9.1583 23.5602 9.43951L28.0602 13.9395C28.3414 14.2208 28.4994 14.6023 28.4994 15C28.4994 15.3978 28.3414 15.7792 28.0602 16.0605L23.5602 20.5605C23.4218 20.7038 23.2563 20.818 23.0733 20.8967C22.8903 20.9753 22.6934 21.0167 22.4943 21.0184C22.2951 21.0201 22.0976 20.9822 21.9132 20.9067C21.7289 20.8313 21.5614 20.7199 21.4206 20.5791C21.2797 20.4383 21.1684 20.2708 21.0929 20.0864C21.0175 19.9021 20.9796 19.7046 20.9813 19.5054C20.983 19.3062 21.0244 19.1094 21.103 18.9264C21.1816 18.7434 21.2959 18.5779 21.4392 18.4395L24.8787 15L21.4392 11.5605C21.158 11.2792 21 10.8978 21 10.5C21 10.1023 21.158 9.7208 21.4392 9.43951V9.43951Z" fill="white"/>
</svg>
