<svg width="121" height="121" viewBox="0 0 121 121" fill="none" xmlns="http://www.w3.org/2000/svg">
<rect width="121" height="121" fill="#EFEFEF"/>
<path d="M61 60.5C71.1 60.5 79.2857 52.3303 79.2857 42.25C79.2857 32.1697 71.1 24 61 24C50.9 24 42.7143 32.1697 42.7143 42.25C42.7143 52.3303 50.9 60.5 61 60.5ZM73.8 65.0625H71.4143C68.2429 66.5168 64.7143 67.3438 61 67.3438C57.2857 67.3438 53.7714 66.5168 50.5857 65.0625H48.2C37.6 65.0625 29 73.6457 29 84.225V90.1562C29 93.9346 32.0714 97 35.8571 97H86.1429C89.9286 97 93 93.9346 93 90.1562V84.225C93 73.6457 84.4 65.0625 73.8 65.0625Z" fill="#05114F"/>
</svg>
