<svg width="724" height="724" viewBox="0 0 724 724" fill="none" xmlns="http://www.w3.org/2000/svg">
<circle cx="362" cy="362" r="362" fill="white"/>
<path d="M172.793 331.451C157.996 316.569 158.064 292.509 172.947 277.712L192.773 257.999L324.174 389.4L344 369.687L212.599 238.286L338.5 113.103L357.143 94.5665C372.025 79.7691 396.085 79.838 410.883 94.7203L488.321 172.603C503.118 187.485 503.033 211.562 488.15 226.359C481.904 232.57 475.832 238.607 469.901 244.504C469.901 244.504 456.138 258.188 449.5 264.789C412.823 301.256 380.569 333.327 344 369.687C337.542 376.108 330.949 382.663 324.174 389.4C317.63 395.906 310.915 402.582 303.987 409.471C289.105 424.268 265.028 424.216 250.231 409.334L172.793 331.451Z" fill="#333973"/>
<path d="M626.282 548.698C611.442 563.538 587.381 563.538 572.541 548.698L330.441 306.598C315.601 291.758 315.601 267.697 330.441 252.858L331.857 251.441C346.697 236.601 370.758 236.601 385.598 251.441L627.698 493.541C642.538 508.381 642.538 532.442 627.698 547.282L626.282 548.698Z" fill="#333973"/>
<path d="M135 548C135 532.536 147.536 520 163 520H399C414.464 520 427 532.536 427 548C427 563.464 414.464 576 399 576H163C147.536 576 135 563.464 135 548Z" fill="#333973"/>
<path d="M168 495C168 479.536 180.536 467 196 467H366C381.464 467 394 479.536 394 495C394 510.464 381.464 523 366 523H196C180.536 523 168 510.464 168 495Z" fill="#333973"/>
</svg>
