<svg width="846" height="476" viewBox="0 0 846 476" fill="none" xmlns="http://www.w3.org/2000/svg">
<rect width="846" height="476" fill="#F5F5F5"/>
<path d="M465.361 155.688L472.25 162.581L462.5 172.345V226.75C462.5 229.336 461.472 231.816 459.644 233.645C457.816 235.473 455.336 236.5 452.75 236.5H398.345L388.561 246.28L381.667 239.386L465.356 155.683L465.361 155.688ZM425.547 209.298L430.422 214.173L435.297 209.298C436.78 208.112 438.646 207.512 440.542 207.61C442.438 207.709 444.232 208.501 445.583 209.834L452.75 217V182.095L425.547 209.298ZM438.905 168.25H394.25V199.353L404.926 188.677L411.702 195.453L384.5 222.67V168.25C384.5 165.665 385.527 163.185 387.355 161.356C389.184 159.528 391.664 158.5 394.25 158.5H448.664L438.914 168.25H438.905Z" fill="#686868"/>
<path d="M308.104 287.096H310.288V280.544H308.104V277.64H310.288V276.128C310.288 274.928 310.672 273.968 311.44 273.248C312.208 272.512 313.232 272.144 314.512 272.144C315.408 272.144 316.4 272.368 317.488 272.816L316.312 275.48C315.768 275.208 315.28 275.072 314.848 275.072C314.48 275.072 314.192 275.176 313.984 275.384C313.776 275.592 313.672 275.896 313.672 276.296V277.64H316.552V280.544H313.672V287.096H316.552V290H308.104V287.096ZM322.402 290.36C321.122 290.36 320.106 289.816 319.354 288.728C318.602 287.64 318.226 286.16 318.226 284.288C318.226 282.016 318.802 280.288 319.954 279.104C321.106 277.904 322.762 277.304 324.922 277.304C326.138 277.304 327.562 277.496 329.194 277.88V290H325.978L326.05 288.032H325.954C325.538 288.784 325.026 289.36 324.418 289.76C323.826 290.16 323.154 290.36 322.402 290.36ZM323.122 287.408C323.618 287.408 324.106 287.144 324.586 286.616C325.066 286.088 325.514 285.384 325.93 284.504V280.472C325.418 280.328 324.906 280.256 324.394 280.256C323.434 280.256 322.706 280.584 322.21 281.24C321.73 281.896 321.49 282.864 321.49 284.144C321.49 285.152 321.634 285.952 321.922 286.544C322.21 287.12 322.61 287.408 323.122 287.408ZM333.742 272.48H337.606V275.6H333.742V272.48ZM331.87 287.096H334.174V280.544H331.87V277.64H337.558V287.096H339.622V290H331.87V287.096ZM341.313 287.096H343.497V275.36H341.433V272.48H346.881V287.096H349.065V290H341.313V287.096ZM356.837 290.36C354.837 290.36 353.261 289.784 352.109 288.632C350.973 287.48 350.405 285.88 350.405 283.832C350.405 282.504 350.653 281.352 351.149 280.376C351.645 279.384 352.341 278.624 353.237 278.096C354.149 277.568 355.213 277.304 356.429 277.304C358.221 277.304 359.597 277.88 360.557 279.032C361.517 280.184 361.997 281.848 361.997 284.024C361.997 284.392 361.989 284.664 361.973 284.84H353.813C353.973 285.688 354.341 286.336 354.917 286.784C355.493 287.216 356.269 287.432 357.245 287.432C357.837 287.432 358.453 287.36 359.093 287.216C359.733 287.056 360.293 286.848 360.773 286.592L361.325 289.304C360.685 289.64 359.973 289.896 359.189 290.072C358.421 290.264 357.637 290.36 356.837 290.36ZM358.757 282.296C358.709 281.608 358.469 281.064 358.037 280.664C357.605 280.248 357.029 280.04 356.309 280.04C355.621 280.04 355.053 280.24 354.605 280.64C354.173 281.04 353.901 281.592 353.789 282.296H358.757ZM368.51 290.36C367.118 290.36 366.022 289.832 365.222 288.776C364.438 287.704 364.046 286.216 364.046 284.312C364.046 282.056 364.63 280.328 365.798 279.128C366.982 277.912 368.662 277.304 370.838 277.304C371.11 277.304 371.518 277.32 372.062 277.352V272.48H375.398V290H372.11L372.182 288.392H372.086C371.67 289.032 371.158 289.52 370.55 289.856C369.958 290.192 369.278 290.36 368.51 290.36ZM369.278 287.408C369.79 287.408 370.286 287.192 370.766 286.76C371.246 286.312 371.678 285.68 372.062 284.864V280.472C371.518 280.328 370.998 280.256 370.502 280.256C369.494 280.256 368.726 280.584 368.198 281.24C367.686 281.896 367.43 282.856 367.43 284.12C367.43 285.144 367.59 285.952 367.91 286.544C368.246 287.12 368.702 287.408 369.278 287.408ZM387.838 290.36C386.686 290.36 385.79 290.072 385.15 289.496C384.526 288.904 384.214 288.072 384.214 287V280.544H382.294V277.64H384.214V275C385.35 274.808 386.47 274.664 387.574 274.568V277.64H390.694V280.544H387.574V286.376C387.574 286.712 387.67 286.968 387.862 287.144C388.07 287.32 388.358 287.408 388.726 287.408C389.174 287.408 389.686 287.304 390.262 287.096L391.006 289.64C389.982 290.12 388.926 290.36 387.838 290.36ZM398.53 290.36C397.282 290.36 396.178 290.088 395.218 289.544C394.274 289 393.538 288.24 393.01 287.264C392.482 286.272 392.218 285.128 392.218 283.832C392.218 282.536 392.474 281.4 392.986 280.424C393.514 279.432 394.25 278.664 395.194 278.12C396.154 277.576 397.258 277.304 398.506 277.304C399.754 277.304 400.85 277.576 401.794 278.12C402.754 278.648 403.49 279.4 404.002 280.376C404.53 281.352 404.794 282.48 404.794 283.76C404.794 285.056 404.53 286.208 404.002 287.216C403.49 288.208 402.754 288.984 401.794 289.544C400.85 290.088 399.762 290.36 398.53 290.36ZM398.506 287.432C399.37 287.432 400.058 287.104 400.57 286.448C401.098 285.776 401.362 284.896 401.362 283.808C401.362 282.72 401.098 281.856 400.57 281.216C400.058 280.56 399.37 280.232 398.506 280.232C397.642 280.232 396.946 280.56 396.418 281.216C395.906 281.856 395.65 282.72 395.65 283.808C395.65 284.896 395.906 285.776 396.418 286.448C396.946 287.104 397.642 287.432 398.506 287.432ZM411.555 287.096H413.739V275.36H411.675V272.48H417.123V287.096H419.307V290H411.555V287.096ZM426.96 290.36C425.712 290.36 424.608 290.088 423.648 289.544C422.704 289 421.968 288.24 421.44 287.264C420.912 286.272 420.648 285.128 420.648 283.832C420.648 282.536 420.904 281.4 421.416 280.424C421.944 279.432 422.68 278.664 423.624 278.12C424.584 277.576 425.688 277.304 426.936 277.304C428.184 277.304 429.28 277.576 430.224 278.12C431.184 278.648 431.92 279.4 432.432 280.376C432.96 281.352 433.224 282.48 433.224 283.76C433.224 285.056 432.96 286.208 432.432 287.216C431.92 288.208 431.184 288.984 430.224 289.544C429.28 290.088 428.192 290.36 426.96 290.36ZM426.936 287.432C427.8 287.432 428.488 287.104 429 286.448C429.528 285.776 429.792 284.896 429.792 283.808C429.792 282.72 429.528 281.856 429 281.216C428.488 280.56 427.8 280.232 426.936 280.232C426.072 280.232 425.376 280.56 424.848 281.216C424.336 281.856 424.08 282.72 424.08 283.808C424.08 284.896 424.336 285.776 424.848 286.448C425.376 287.104 426.072 287.432 426.936 287.432ZM439.425 290.36C438.145 290.36 437.129 289.816 436.377 288.728C435.625 287.64 435.249 286.16 435.249 284.288C435.249 282.016 435.825 280.288 436.977 279.104C438.129 277.904 439.785 277.304 441.945 277.304C443.161 277.304 444.585 277.496 446.217 277.88V290H443.001L443.073 288.032H442.977C442.561 288.784 442.049 289.36 441.441 289.76C440.849 290.16 440.177 290.36 439.425 290.36ZM440.145 287.408C440.641 287.408 441.129 287.144 441.609 286.616C442.089 286.088 442.537 285.384 442.953 284.504V280.472C442.441 280.328 441.929 280.256 441.417 280.256C440.457 280.256 439.729 280.584 439.233 281.24C438.753 281.896 438.513 282.864 438.513 284.144C438.513 285.152 438.657 285.952 438.945 286.544C439.233 287.12 439.633 287.408 440.145 287.408ZM453.19 290.36C451.798 290.36 450.702 289.832 449.902 288.776C449.118 287.704 448.726 286.216 448.726 284.312C448.726 282.056 449.31 280.328 450.478 279.128C451.662 277.912 453.342 277.304 455.518 277.304C455.79 277.304 456.198 277.32 456.742 277.352V272.48H460.078V290H456.79L456.862 288.392H456.766C456.35 289.032 455.838 289.52 455.23 289.856C454.638 290.192 453.958 290.36 453.19 290.36ZM453.958 287.408C454.47 287.408 454.966 287.192 455.446 286.76C455.926 286.312 456.358 285.68 456.742 284.864V280.472C456.198 280.328 455.678 280.256 455.182 280.256C454.174 280.256 453.406 280.584 452.878 281.24C452.366 281.896 452.11 282.856 452.11 284.12C452.11 285.144 452.27 285.952 452.59 286.544C452.926 287.12 453.382 287.408 453.958 287.408ZM469.422 272.48H473.286V275.6H469.422V272.48ZM467.55 287.096H469.854V280.544H467.55V277.64H473.238V287.096H475.302V290H467.55V287.096ZM477.544 277.64H480.856V279.56C481.832 278.056 483.152 277.304 484.816 277.304C485.76 277.304 486.56 277.528 487.216 277.976C487.888 278.408 488.376 279.032 488.68 279.848C489.24 278.968 489.864 278.328 490.552 277.928C491.256 277.512 492.056 277.304 492.952 277.304C494.28 277.304 495.312 277.704 496.048 278.504C496.8 279.288 497.176 280.384 497.176 281.792V290H493.792V282.32C493.792 281.68 493.632 281.184 493.312 280.832C493.008 280.464 492.592 280.28 492.064 280.28C491.408 280.28 490.8 280.552 490.24 281.096C489.68 281.64 489.264 282.336 488.992 283.184V290H485.608V282.32C485.608 281.696 485.448 281.2 485.128 280.832C484.808 280.464 484.384 280.28 483.856 280.28C483.264 280.28 482.704 280.504 482.176 280.952C481.664 281.384 481.248 282 480.928 282.8V290H477.544V277.64ZM503.878 290.36C502.598 290.36 501.582 289.816 500.83 288.728C500.078 287.64 499.702 286.16 499.702 284.288C499.702 282.016 500.278 280.288 501.43 279.104C502.582 277.904 504.238 277.304 506.398 277.304C507.614 277.304 509.038 277.496 510.67 277.88V290H507.454L507.526 288.032H507.43C507.014 288.784 506.502 289.36 505.894 289.76C505.302 290.16 504.63 290.36 503.878 290.36ZM504.598 287.408C505.094 287.408 505.582 287.144 506.062 286.616C506.542 286.088 506.99 285.384 507.406 284.504V280.472C506.894 280.328 506.382 280.256 505.87 280.256C504.91 280.256 504.182 280.584 503.686 281.24C503.206 281.896 502.966 282.864 502.966 284.144C502.966 285.152 503.11 285.952 503.398 286.544C503.686 287.12 504.086 287.408 504.598 287.408ZM517.67 295.448C516.246 295.448 514.854 295.264 513.494 294.896L514.142 291.92C515.678 292.368 516.958 292.592 517.982 292.592C518.798 292.592 519.422 292.464 519.854 292.208C520.302 291.952 520.614 291.552 520.79 291.008C520.982 290.464 521.094 289.72 521.126 288.776H521.054C520.606 289.288 520.086 289.68 519.494 289.952C518.902 290.224 518.254 290.36 517.55 290.36C516.142 290.36 515.038 289.832 514.238 288.776C513.454 287.704 513.062 286.224 513.062 284.336C513.062 282.048 513.646 280.304 514.814 279.104C515.998 277.904 517.686 277.304 519.878 277.304C521.142 277.304 522.646 277.496 524.39 277.88C524.422 281.176 524.438 283.656 524.438 285.32C524.438 286.808 524.43 287.928 524.414 288.68C524.382 290.952 523.806 292.648 522.686 293.768C521.582 294.888 519.91 295.448 517.67 295.448ZM518.438 287.408C518.934 287.408 519.406 287.224 519.854 286.856C520.318 286.488 520.726 285.968 521.078 285.296L521.054 280.472C520.526 280.328 520.014 280.256 519.518 280.256C518.51 280.256 517.742 280.584 517.214 281.24C516.702 281.896 516.446 282.848 516.446 284.096C516.446 285.136 516.614 285.952 516.95 286.544C517.302 287.12 517.798 287.408 518.438 287.408ZM533.345 290.36C531.345 290.36 529.769 289.784 528.617 288.632C527.481 287.48 526.913 285.88 526.913 283.832C526.913 282.504 527.161 281.352 527.657 280.376C528.153 279.384 528.849 278.624 529.745 278.096C530.657 277.568 531.721 277.304 532.937 277.304C534.729 277.304 536.105 277.88 537.065 279.032C538.025 280.184 538.505 281.848 538.505 284.024C538.505 284.392 538.497 284.664 538.481 284.84H530.321C530.481 285.688 530.849 286.336 531.425 286.784C532.001 287.216 532.777 287.432 533.753 287.432C534.345 287.432 534.961 287.36 535.601 287.216C536.241 287.056 536.801 286.848 537.281 286.592L537.833 289.304C537.193 289.64 536.481 289.896 535.697 290.072C534.929 290.264 534.145 290.36 533.345 290.36ZM535.265 282.296C535.217 281.608 534.977 281.064 534.545 280.664C534.113 280.248 533.537 280.04 532.817 280.04C532.129 280.04 531.561 280.24 531.113 280.64C530.681 281.04 530.409 281.592 530.297 282.296H535.265Z" fill="#4B4B4B"/>
</svg>
