<svg width="1017" height="497" viewBox="0 0 1017 497" fill="none" xmlns="http://www.w3.org/2000/svg">
<path d="M414.786 22.5512C286.286 -50.4488 243.786 71.5513 239.786 136.551C238.648 155.051 252.886 170.751 199.286 185.551C132.286 204.051 32.286 185.551 68.786 287.051C105.286 388.551 191.286 307.551 276.786 352.051C362.286 396.551 394.786 492.551 492.286 496.551C589.786 500.551 551.286 409.051 634.786 352.051C718.286 295.051 911.286 317.551 960.286 307.551C1009.29 297.551 1049.79 167.051 960.286 87.5513C870.786 8.05127 756.786 150.551 634.786 167.051C512.786 183.551 543.286 95.5512 414.786 22.5512Z" fill="#D8D8FF"/>
<path fill-rule="evenodd" clip-rule="evenodd" d="M522.483 176.074C609.667 176.074 680.343 136.658 680.343 88.0369C680.343 39.4155 609.667 0 522.483 0C435.3 0 364.624 39.4155 364.624 88.0369C364.624 136.658 435.3 176.074 522.483 176.074ZM415.77 43.3341H387.182V128.713H416.026C421.752 128.713 426.88 127.602 431.41 125.38C436.025 123.158 439.614 120.081 442.178 116.15C444.742 112.133 446.024 107.561 446.024 102.433C446.024 93.3735 441.537 87.0491 432.563 83.4596C439.315 79.2718 442.691 73.2893 442.691 65.5121C442.691 58.6749 440.255 53.2907 435.384 49.3593C430.598 45.3425 424.06 43.3341 415.77 43.3341ZM421.282 75.1268C418.975 77.0925 415.684 78.0753 411.411 78.0753H405.001V57.4357H413.077C420.94 57.4357 424.872 60.5979 424.872 66.9222C424.872 70.4263 423.675 73.1611 421.282 75.1268ZM423.974 111.278C421.41 113.415 417.821 114.483 413.206 114.483H405.001V92.4334H415C419.188 92.4334 422.393 93.3307 424.615 95.1255C426.837 96.9202 427.948 99.4415 427.948 102.689C427.948 106.279 426.624 109.142 423.974 111.278ZM487.233 35.1295H466.594V51.795H487.233V35.1295ZM468.901 113.201H456.594V128.713H498.002V113.201H486.977V62.6917H456.594V78.2035H468.901V113.201ZM511.805 122.175C516.078 127.816 521.932 130.636 529.368 130.636C533.47 130.636 537.102 129.739 540.265 127.944C543.512 126.149 546.247 123.542 548.469 120.124H548.982L548.597 128.713H566.16V35.1295H548.341V61.1534C545.435 60.9825 543.256 60.897 541.803 60.897C530.18 60.897 521.206 64.1446 514.882 70.6399C508.643 77.0498 505.523 86.2799 505.523 98.3304C505.523 108.501 507.617 116.449 511.805 122.175ZM541.418 111.406C538.854 113.714 536.205 114.868 533.47 114.868C530.393 114.868 527.958 113.329 526.163 110.253C524.454 107.091 523.599 102.775 523.599 97.3048C523.599 90.5532 524.966 85.4253 527.701 81.9212C530.522 78.4172 534.624 76.6652 540.008 76.6652C542.658 76.6652 545.435 77.0498 548.341 77.819V101.279C546.29 105.638 543.982 109.013 541.418 111.406ZM602.972 43.3341H584.383V128.713H602.972V43.3341ZM631.147 126.021C634.566 129.098 639.352 130.636 645.505 130.636C651.317 130.636 656.957 129.354 662.427 126.79L658.453 113.201C655.376 114.312 652.641 114.868 650.248 114.868C648.283 114.868 646.744 114.398 645.633 113.458C644.608 112.518 644.095 111.15 644.095 109.355V78.2035H660.76V62.6917H644.095V46.2826C638.198 46.7954 632.215 47.5645 626.147 48.5901V62.6917H615.892V78.2035H626.147V112.688C626.147 118.415 627.814 122.859 631.147 126.021Z" fill="#05114F"/>
<circle cx="49.1762" cy="179.176" r="35.3525" transform="rotate(-34.6098 49.1762 179.176)" fill="#EA5050"/>
<rect x="41.6016" y="183.932" width="18.6475" height="73.036" rx="9.32374" transform="rotate(-34.6098 41.6016 183.932)" fill="#EA5050"/>
<circle cx="49.1763" cy="179.176" r="27.5827" transform="rotate(-34.6098 49.1763 179.176)" fill="white"/>
<path d="M30.7071 181.646L35.0483 178.65C36.3072 177.781 37.5105 177.401 38.6582 177.509C39.81 177.596 40.7441 178.158 41.4606 179.196C42.2757 180.377 42.39 181.639 41.8035 182.983C43.5424 182.588 44.8865 183.078 45.8359 184.454C46.3733 185.232 46.6578 186.061 46.6894 186.94C46.712 187.805 46.4894 188.649 46.0214 189.47C45.5664 190.282 44.9042 190.988 44.0346 191.588L39.6545 194.611L30.7071 181.646ZM38.0272 184.382C38.6761 183.934 39.0728 183.44 39.2172 182.9C39.3746 182.351 39.2697 181.81 38.9025 181.278C38.2397 180.317 37.3113 180.249 36.1173 181.073L34.8909 181.92L37.0538 185.054L38.0272 184.382ZM42.1151 189.723C42.816 189.239 43.2491 188.701 43.4145 188.107C43.5929 187.505 43.4941 186.932 43.1179 186.387C42.7776 185.894 42.3446 185.627 41.8191 185.587C41.2936 185.548 40.7129 185.747 40.0769 186.186L38.5585 187.234L40.8692 190.582L42.1151 189.723ZM41.9463 173.889L44.769 171.941L53.7164 184.907L50.8937 186.855L41.9463 173.889ZM58.6508 181.53C57.7294 182.166 57.037 182.634 56.5738 182.935L47.6265 169.969C48.1756 169.571 48.9952 168.996 50.0854 168.244C51.1885 167.482 52.0171 166.92 52.5711 166.557C53.852 165.692 55.1342 165.191 56.418 165.052C57.7057 164.891 58.9206 165.097 60.0627 165.669C61.2177 166.232 62.2206 167.13 63.0715 168.363C64.0029 169.713 64.5239 171.107 64.6345 172.544C64.758 173.972 64.4782 175.343 63.7951 176.658C63.125 177.963 62.0871 179.111 60.6814 180.1C60.2362 180.426 59.5593 180.903 58.6508 181.53ZM58.9692 177.66C60.28 176.756 61.0476 175.661 61.2719 174.376C61.4962 173.091 61.1471 171.78 60.2246 170.443C59.3917 169.236 58.4268 168.532 57.3301 168.331C56.2463 168.121 55.101 168.432 53.894 169.265L52.142 170.474L57.7038 178.534L58.9692 177.66Z" fill="#05114F"/>
<circle cx="342.748" cy="174.749" r="35.3525" transform="rotate(-9.5908 342.748 174.749)" fill="#EA5050"/>
<rect x="333.873" y="175.854" width="18.6475" height="73.036" rx="9.32374" transform="rotate(-9.5908 333.873 175.854)" fill="#EA5050"/>
<circle cx="342.749" cy="174.749" r="27.5827" transform="rotate(-9.5908 342.749 174.749)" fill="white"/>
<path d="M324.969 169.175L330.169 168.296C331.678 168.042 332.929 168.206 333.923 168.79C334.93 169.355 335.539 170.26 335.749 171.504C335.988 172.919 335.558 174.111 334.458 175.08C336.201 175.457 337.212 176.47 337.49 178.118C337.648 179.051 337.555 179.922 337.212 180.732C336.867 181.526 336.308 182.196 335.537 182.742C334.781 183.285 333.882 183.645 332.841 183.821L327.593 184.708L324.969 169.175ZM330.444 174.751C331.222 174.619 331.79 174.339 332.15 173.911C332.525 173.48 332.658 172.945 332.55 172.308C332.356 171.157 331.544 170.703 330.113 170.945L328.644 171.193L329.278 174.948L330.444 174.751ZM331.89 181.319C332.73 181.177 333.35 180.873 333.751 180.405C334.167 179.935 334.32 179.373 334.21 178.72C334.11 178.129 333.83 177.705 333.371 177.447C332.911 177.189 332.301 177.124 331.539 177.253L329.72 177.56L330.397 181.571L331.89 181.319ZM338.433 166.9L341.815 166.329L344.44 181.861L341.058 182.433L338.433 166.9ZM350.339 180.888C349.235 181.075 348.41 181.206 347.863 181.283L345.238 165.75C345.904 165.622 346.89 165.447 348.196 165.226C349.518 165.003 350.507 164.844 351.162 164.749C352.689 164.507 354.063 164.595 355.285 165.012C356.52 165.411 357.533 166.111 358.326 167.113C359.135 168.112 359.664 169.35 359.913 170.827C360.187 172.444 360.069 173.927 359.562 175.276C359.07 176.623 358.236 177.747 357.061 178.649C355.902 179.549 354.476 180.149 352.784 180.451C352.242 180.559 351.427 180.705 350.339 180.888ZM352.264 177.517C353.834 177.251 354.993 176.584 355.74 175.514C356.487 174.444 356.725 173.109 356.454 171.507C356.21 170.061 355.633 169.015 354.724 168.369C353.831 167.721 352.662 167.518 351.216 167.763L349.117 168.117L350.748 177.773L352.264 177.517Z" fill="#05114F"/>
<circle cx="967.057" cy="217.942" r="35.3525" transform="rotate(42.332 967.057 217.942)" fill="#EA5050"/>
<rect x="960.713" y="211.637" width="18.6475" height="73.036" rx="9.32374" transform="rotate(42.332 960.713 211.637)" fill="#EA5050"/>
<circle cx="967.057" cy="217.942" r="27.5827" transform="rotate(42.332 967.057 217.942)" fill="white"/>
<path d="M960.479 200.508L964.378 204.06C965.509 205.09 966.151 206.177 966.305 207.319C966.481 208.461 966.144 209.498 965.294 210.43C964.328 211.491 963.124 211.888 961.683 211.62C962.461 213.224 962.287 214.645 961.162 215.88C960.524 216.58 959.781 217.044 958.933 217.273C958.094 217.491 957.223 217.465 956.317 217.194C955.423 216.935 954.586 216.449 953.805 215.738L949.87 212.154L960.479 200.508ZM959.467 208.257C960.05 208.788 960.621 209.063 961.18 209.082C961.75 209.111 962.253 208.887 962.689 208.409C963.474 207.546 963.331 206.626 962.259 205.649L961.157 204.646L958.593 207.461L959.467 208.257ZM955.188 213.446C955.817 214.02 956.44 214.32 957.055 214.347C957.682 214.385 958.218 214.159 958.664 213.669C959.068 213.226 959.229 212.744 959.149 212.224C959.069 211.703 958.744 211.182 958.172 210.662L956.809 209.419L954.069 212.427L955.188 213.446ZM970.574 209.704L973.109 212.014L962.501 223.659L959.965 221.35L970.574 209.704ZM966.905 227.703C966.077 226.949 965.465 226.381 965.067 225.997L975.676 214.352C976.188 214.797 976.933 215.465 977.912 216.357C978.903 217.26 979.638 217.94 980.117 218.398C981.249 219.45 982.027 220.586 982.452 221.805C982.9 223.023 982.974 224.253 982.675 225.495C982.387 226.747 981.739 227.927 980.73 229.035C979.626 230.247 978.386 231.069 977.011 231.502C975.647 231.945 974.248 231.982 972.813 231.614C971.39 231.256 970.038 230.504 968.757 229.358C968.338 228.998 967.721 228.447 966.905 227.703ZM970.746 227.139C971.924 228.212 973.164 228.712 974.466 228.64C975.769 228.568 976.967 227.932 978.061 226.731C979.048 225.647 979.516 224.548 979.464 223.434C979.424 222.331 978.862 221.286 977.778 220.298L976.204 218.865L969.61 226.104L970.746 227.139Z" fill="#05114F"/>
<path d="M618 258L617.5 262.5L742 265L741 258H618Z" fill="#7E8C8D"/>
<path d="M742.5 261H615.5L603 407.5H749L742.5 261Z" fill="#95A4A7"/>
<path d="M748 383H604.5L603 408.5H751L748 383Z" fill="#A2B0B1"/>
<circle cx="661.5" cy="270.5" r="2.5" fill="#F8F8F8"/>
<circle cx="699.5" cy="270.5" r="2.5" fill="#F8F8F8"/>
<path d="M661.5 270.5C662 281.167 666.8 302 682 300C697.2 298 700 279.5 699.5 270.5" stroke="#717071" stroke-width="3" stroke-linecap="round"/>
<rect x="695.89" y="304.991" width="23" height="37" transform="rotate(-34.272 695.89 304.991)" fill="#D84141"/>
<path d="M704.897 308.174L706.175 307.754C705.924 307.164 705.787 306.614 705.762 306.105L707.555 305.117C707.581 305.846 707.72 306.524 707.97 307.15L710.305 306.367C710.17 305.748 710.085 305.231 710.049 304.814C710.019 304.406 710.09 303.985 710.263 303.551C710.449 303.12 710.795 302.734 711.3 302.394C712.108 301.85 712.928 301.695 713.759 301.931C714.59 302.166 715.335 302.772 715.992 303.748C716.083 303.883 716.205 304.082 716.358 304.346L717.471 303.982L717.978 305.035L716.806 305.42C716.915 305.727 717.002 306.029 717.068 306.327L715.215 307.171C715.176 306.732 715.104 306.353 714.998 306.033L712.688 306.799C712.864 307.586 712.889 308.278 712.766 308.876C712.656 309.476 712.26 310.005 711.578 310.464C710.762 311.014 709.939 311.164 709.111 310.915C708.282 310.665 707.533 310.044 706.865 309.051L706.686 308.786L705.396 309.214L704.897 308.174ZM714.55 304.958L714.422 304.769C714.156 304.373 713.869 304.12 713.562 304.009C713.263 303.892 712.983 303.921 712.722 304.097C712.495 304.25 712.369 304.445 712.345 304.681C712.321 304.918 712.352 305.246 712.438 305.665L714.55 304.958ZM708.541 308.161C708.798 308.489 709.078 308.704 709.379 308.807C709.695 308.912 709.979 308.88 710.232 308.71C710.409 308.591 710.516 308.433 710.555 308.236C710.607 308.041 710.607 307.797 710.555 307.501L708.541 308.161ZM709.838 315.509L711.115 315.09C710.864 314.5 710.727 313.95 710.702 313.441L712.496 312.453C712.522 313.182 712.66 313.86 712.91 314.486L715.245 313.703C715.11 313.084 715.025 312.567 714.989 312.15C714.959 311.742 715.03 311.321 715.203 310.887C715.389 310.456 715.735 310.07 716.24 309.73C717.048 309.186 717.868 309.031 718.699 309.267C719.531 309.502 720.275 310.108 720.932 311.084C721.023 311.219 721.145 311.418 721.298 311.682L722.411 311.318L722.918 312.371L721.747 312.756C721.855 313.063 721.942 313.365 722.008 313.663L720.155 314.507C720.116 314.068 720.044 313.689 719.938 313.368L717.628 314.135C717.804 314.922 717.83 315.614 717.706 316.212C717.596 316.812 717.2 317.341 716.518 317.8C715.702 318.35 714.879 318.5 714.051 318.251C713.222 318.001 712.474 317.38 711.805 316.387L711.626 316.122L710.336 316.55L709.838 315.509ZM719.49 312.294L719.363 312.105C719.096 311.709 718.809 311.456 718.502 311.345C718.203 311.228 717.923 311.257 717.662 311.433C717.435 311.586 717.309 311.781 717.285 312.017C717.261 312.254 717.292 312.582 717.378 313L719.49 312.294ZM713.481 315.497C713.738 315.825 714.018 316.04 714.32 316.143C714.635 316.248 714.919 316.216 715.172 316.046C715.349 315.927 715.456 315.769 715.495 315.572C715.547 315.377 715.548 315.132 715.496 314.837L713.481 315.497ZM714.778 322.845L716.055 322.426C715.804 321.836 715.667 321.286 715.642 320.777L717.436 319.789C717.462 320.518 717.6 321.196 717.85 321.822L720.186 321.039C720.05 320.42 719.965 319.903 719.929 319.486C719.899 319.078 719.97 318.657 720.143 318.223C720.33 317.792 720.675 317.406 721.18 317.066C721.988 316.522 722.808 316.367 723.639 316.603C724.471 316.838 725.215 317.444 725.873 318.42C725.963 318.555 726.085 318.754 726.238 319.018L727.351 318.654L727.859 319.707L726.687 320.092C726.795 320.399 726.882 320.701 726.948 320.999L725.095 321.843C725.056 321.404 724.984 321.025 724.878 320.704L722.569 321.471C722.744 322.258 722.77 322.95 722.646 323.548C722.536 324.148 722.14 324.677 721.459 325.136C720.642 325.686 719.82 325.836 718.991 325.587C718.162 325.337 717.414 324.716 716.745 323.723L716.566 323.458L715.276 323.886L714.778 322.845ZM724.43 319.63L724.303 319.441C724.036 319.045 723.749 318.792 723.442 318.681C723.143 318.564 722.863 318.593 722.602 318.769C722.375 318.922 722.249 319.117 722.225 319.353C722.201 319.59 722.232 319.917 722.318 320.336L724.43 319.63ZM718.421 322.833C718.679 323.161 718.958 323.376 719.26 323.479C719.575 323.584 719.86 323.552 720.112 323.382C720.289 323.263 720.396 323.105 720.435 322.908C720.488 322.713 720.488 322.468 720.436 322.173L718.421 322.833Z" fill="#F0F0FF"/>
<path d="M898.194 431.94L882.224 446.809L893.788 412.666L892.136 238.097L904.802 232.59C902.159 240.52 910.309 366.959 914.714 429.186L898.194 431.94Z" fill="#BE3A2B"/>
<path d="M894.338 240.85L884.426 229.286L882.773 446.809L897.091 415.419L894.338 240.85Z" fill="#D54334"/>
<path d="M884.977 229.837L762.173 238.097C759.089 313.872 748.773 391.923 744 421.477L882.774 447.359L884.977 229.837Z" fill="#E94C3D"/>
<ellipse cx="801.823" cy="242.17" rx="2.75345" ry="3.30414" fill="#BE3A2B"/>
<ellipse cx="838.168" cy="242.17" rx="2.75345" ry="3.30414" fill="#BE3A2B"/>
<path d="M801.822 242.503C803.107 231.489 808.431 208.8 819.444 206.157C833.212 202.853 840.921 224.88 838.168 241.952" stroke="#706E6F" stroke-width="4.40552" stroke-linecap="round" stroke-linejoin="round"/>
<rect x="875.389" y="188.297" width="25.3317" height="40.7511" transform="rotate(53.4138 875.389 188.297)" fill="#D84141"/>
<path d="M872.004 197.965L872.522 199.352C873.16 199.05 873.759 198.875 874.318 198.824L875.485 200.755C874.684 200.816 873.945 200.998 873.267 201.301L874.233 203.836C874.907 203.66 875.473 203.543 875.93 203.485C876.377 203.434 876.844 203.494 877.329 203.664C877.812 203.85 878.252 204.214 878.649 204.754C879.284 205.619 879.49 206.514 879.268 207.44C879.046 208.365 878.412 209.211 877.367 209.978C877.223 210.084 877.009 210.227 876.726 210.407L877.176 211.616L876.039 212.221L875.563 210.949C875.231 211.081 874.902 211.191 874.577 211.277L873.566 209.275C874.047 209.213 874.461 209.116 874.809 208.986L873.863 206.478C873.004 206.706 872.244 206.765 871.581 206.655C870.916 206.561 870.316 206.149 869.78 205.419C869.139 204.545 868.937 203.647 869.174 202.724C869.412 201.801 870.063 200.949 871.126 200.169L871.41 199.961L870.881 198.561L872.004 197.965ZM875.972 208.445L876.174 208.296C876.598 207.985 876.864 207.658 876.973 207.315C877.088 206.981 877.043 206.674 876.838 206.395C876.659 206.152 876.44 206.022 876.178 206.006C875.917 205.99 875.557 206.039 875.1 206.152L875.972 208.445ZM872.18 201.974C871.83 202.272 871.606 202.59 871.506 202.926C871.404 203.278 871.452 203.589 871.651 203.86C871.789 204.049 871.968 204.16 872.187 204.194C872.403 204.243 872.673 204.232 872.995 204.162L872.18 201.974ZM864.15 203.728L864.669 205.115C865.307 204.813 865.906 204.637 866.465 204.587L867.632 206.517C866.831 206.578 866.091 206.761 865.413 207.064L866.379 209.599C867.054 209.423 867.62 209.306 868.076 209.248C868.524 209.197 868.99 209.256 869.476 209.427C869.959 209.613 870.399 209.976 870.796 210.517C871.43 211.382 871.637 212.277 871.415 213.203C871.193 214.128 870.559 214.974 869.514 215.741C869.37 215.847 869.156 215.99 868.872 216.17L869.322 217.379L868.186 217.984L867.71 216.711C867.378 216.844 867.049 216.954 866.724 217.04L865.712 215.037C866.193 214.975 866.608 214.879 866.956 214.749L866.01 212.241C865.151 212.469 864.39 212.528 863.728 212.418C863.063 212.324 862.462 211.912 861.927 211.182C861.285 210.308 861.083 209.41 861.321 208.487C861.559 207.564 862.209 206.712 863.272 205.932L863.556 205.724L863.028 204.323L864.15 203.728ZM868.118 214.208L868.321 214.059C868.744 213.748 869.011 213.421 869.119 213.078C869.234 212.744 869.19 212.437 868.985 212.158C868.806 211.915 868.586 211.785 868.325 211.769C868.063 211.753 867.704 211.801 867.247 211.915L868.118 214.208ZM864.327 207.737C863.977 208.035 863.752 208.352 863.653 208.689C863.551 209.041 863.599 209.352 863.797 209.622C863.936 209.812 864.115 209.923 864.333 209.957C864.55 210.006 864.819 209.995 865.142 209.925L864.327 207.737ZM856.297 209.491L856.816 210.878C857.454 210.576 858.052 210.4 858.612 210.35L859.779 212.28C858.978 212.341 858.238 212.523 857.56 212.827L858.526 215.362C859.201 215.186 859.766 215.069 860.223 215.011C860.67 214.96 861.137 215.019 861.622 215.19C862.106 215.376 862.546 215.739 862.942 216.28C863.577 217.145 863.783 218.04 863.561 218.965C863.339 219.891 862.706 220.737 861.66 221.504C861.516 221.61 861.302 221.753 861.019 221.933L861.469 223.142L860.333 223.747L859.856 222.474C859.524 222.607 859.196 222.717 858.871 222.803L857.859 220.8C858.34 220.738 858.755 220.642 859.102 220.512L858.156 218.004C857.298 218.232 856.537 218.291 855.874 218.181C855.209 218.087 854.609 217.675 854.073 216.945C853.432 216.071 853.23 215.172 853.468 214.25C853.705 213.327 854.356 212.475 855.419 211.695L855.703 211.487L855.174 210.086L856.297 209.491ZM860.265 219.97L860.468 219.822C860.891 219.511 861.157 219.184 861.266 218.841C861.381 218.507 861.336 218.2 861.131 217.921C860.953 217.677 860.733 217.548 860.471 217.532C860.21 217.515 859.851 217.564 859.394 217.678L860.265 219.97ZM856.473 213.5C856.124 213.798 855.899 214.115 855.799 214.452C855.697 214.804 855.745 215.115 855.944 215.385C856.083 215.574 856.261 215.686 856.48 215.719C856.696 215.769 856.966 215.758 857.289 215.688L856.473 213.5Z" fill="#F0F0FF"/>
<path d="M149.522 252.414C149.189 239.914 152.522 215.814 168.522 219.414C184.522 223.014 187.522 244.58 187.022 254.914" stroke="#706E6F" stroke-width="4"/>
<path d="M121 242.051L245.5 245.414C245.5 326.614 253.833 399.247 258 425.414L121 435.051V242.051Z" fill="#5CADE2"/>
<path d="M107.5 405.414L121 435.051L88 421.414L107.5 405.414Z" fill="#2A7EAA"/>
<path d="M112.5 250.051L95 245.414C98.6 274.214 91.8333 374.747 88 421.414L107.5 406.051L116 327.551L112.5 250.051Z" fill="#3191C4"/>
<path d="M112.5 250.051L121 242.051V435.051L107.5 406.051L112.5 250.051Z" fill="#4597CF"/>
<circle cx="167" cy="252.051" r="3" fill="#C4C4C4"/>
<circle cx="205" cy="255.051" r="3" fill="#C4C4C4"/>
<path d="M167 252.414C166.667 239.914 170 215.814 186 219.414C202 223.014 205 244.58 204.5 254.914" stroke="#706E6F" stroke-width="4" stroke-linecap="round"/>
<rect x="198" y="281.311" width="23" height="37" transform="rotate(-13.2191 198 281.311)" fill="#D84141"/>
<path d="M205.263 287.516L206.606 287.584C206.584 286.943 206.653 286.381 206.813 285.897L208.842 285.619C208.604 286.309 208.49 286.991 208.499 287.665L210.959 287.773C211.055 287.147 211.161 286.634 211.278 286.232C211.396 285.841 211.614 285.473 211.931 285.13C212.26 284.794 212.721 284.559 213.315 284.423C214.264 284.205 215.085 284.355 215.776 284.874C216.467 285.392 216.944 286.225 217.207 287.372C217.244 287.53 217.286 287.76 217.334 288.062L218.503 288.122L218.598 289.287L217.366 289.225C217.358 289.55 217.33 289.863 217.285 290.165L215.252 290.287C215.373 289.864 215.442 289.484 215.459 289.147L213.028 289.032C212.909 289.83 212.684 290.485 212.354 290.998C212.036 291.519 211.476 291.871 210.675 292.054C209.716 292.274 208.894 292.119 208.211 291.588C207.527 291.058 207.051 290.209 206.784 289.042L206.713 288.73L205.355 288.667L205.263 287.516ZM215.427 287.983L215.376 287.761C215.269 287.296 215.092 286.956 214.846 286.742C214.609 286.526 214.337 286.453 214.03 286.523C213.763 286.584 213.576 286.721 213.468 286.933C213.361 287.145 213.272 287.462 213.202 287.884L215.427 287.983ZM208.668 288.813C208.79 289.212 208.974 289.514 209.219 289.718C209.475 289.93 209.752 290.002 210.049 289.934C210.257 289.886 210.414 289.777 210.521 289.607C210.639 289.444 210.728 289.216 210.785 288.922L208.668 288.813ZM207.238 296.137L208.581 296.205C208.559 295.564 208.628 295.002 208.788 294.518L210.817 294.24C210.579 294.93 210.465 295.612 210.474 296.286L212.934 296.394C213.03 295.768 213.137 295.255 213.253 294.853C213.371 294.462 213.589 294.094 213.906 293.751C214.235 293.415 214.696 293.18 215.29 293.044C216.239 292.826 217.06 292.976 217.751 293.495C218.442 294.013 218.92 294.846 219.182 295.993C219.219 296.151 219.261 296.381 219.309 296.682L220.478 296.742L220.574 297.907L219.342 297.846C219.333 298.171 219.306 298.484 219.26 298.786L217.227 298.908C217.349 298.485 217.418 298.105 217.434 297.768L215.003 297.653C214.884 298.451 214.659 299.106 214.329 299.619C214.011 300.14 213.452 300.492 212.65 300.675C211.691 300.895 210.869 300.74 210.186 300.209C209.502 299.679 209.026 298.83 208.759 297.663L208.688 297.351L207.33 297.288L207.238 296.137ZM217.402 296.604L217.351 296.382C217.244 295.917 217.068 295.577 216.821 295.363C216.584 295.147 216.312 295.074 216.005 295.144C215.738 295.205 215.551 295.342 215.443 295.554C215.336 295.766 215.247 296.083 215.177 296.505L217.402 296.604ZM210.643 297.434C210.766 297.833 210.949 298.134 211.194 298.339C211.451 298.551 211.727 298.622 212.024 298.555C212.232 298.507 212.389 298.398 212.496 298.228C212.615 298.065 212.703 297.837 212.76 297.543L210.643 297.434ZM209.214 304.758L210.556 304.825C210.534 304.185 210.603 303.623 210.763 303.138L212.792 302.861C212.554 303.55 212.44 304.233 212.449 304.907L214.909 305.015C215.006 304.389 215.112 303.876 215.228 303.474C215.346 303.083 215.564 302.715 215.881 302.372C216.21 302.036 216.672 301.8 217.265 301.664C218.215 301.447 219.035 301.597 219.726 302.116C220.418 302.634 220.895 303.467 221.158 304.614C221.194 304.772 221.236 305.002 221.284 305.303L222.454 305.363L222.549 306.528L221.317 306.467C221.308 306.792 221.281 307.105 221.235 307.407L219.202 307.529C219.324 307.106 219.393 306.726 219.409 306.389L216.978 306.274C216.859 307.072 216.634 307.727 216.304 308.24C215.986 308.761 215.427 309.113 214.625 309.296C213.666 309.516 212.844 309.361 212.161 308.83C211.477 308.3 211.002 307.451 210.734 306.284L210.663 305.972L209.305 305.908L209.214 304.758ZM219.377 305.225L219.326 305.002C219.219 304.538 219.043 304.198 218.796 303.984C218.559 303.768 218.287 303.695 217.98 303.765C217.713 303.826 217.526 303.963 217.418 304.175C217.311 304.387 217.222 304.704 217.152 305.126L219.377 305.225ZM212.618 306.055C212.741 306.454 212.924 306.755 213.169 306.96C213.426 307.171 213.702 307.243 213.999 307.175C214.207 307.128 214.364 307.019 214.471 306.849C214.59 306.686 214.678 306.458 214.735 306.163L212.618 306.055Z" fill="#F0F0FF"/>
<path d="M372.5 291.355C370.833 281.355 365.1 262.155 355.5 265.355C343.5 269.355 340.5 276.855 339.5 291.355M323.5 288.855C324 280.189 327.1 263.855 335.5 267.855C343.9 271.855 345.667 286.522 345.5 293.355" stroke="#706E6F" stroke-width="3"/>
<path d="M291.5 424.355L303 434.855L319.5 401.355H291.5L273 422.355L291.5 424.355Z" fill="#853EA2"/>
<path d="M326.5 286.855L285.5 283.855L286 290.855L318 297.355L326.5 286.855Z" fill="#804396"/>
<path d="M408 418.855L303 434.855V281.855L412 288.855L408 418.855Z" fill="#9A59B5"/>
<path d="M296.5 287.855L303 281.855V434.855L292.5 410.855L296.5 287.855Z" fill="#78468C"/>
<path d="M292.5 410.855L273 422.355L285.5 283.855L296.5 287.855L292.5 410.855Z" fill="#9A59B5"/>
<rect x="319.349" y="292.688" width="23" height="37" transform="rotate(58.06 319.349 292.688)" fill="#D84141"/>
<path d="M315.803 301.559L316.17 302.852C316.77 302.626 317.324 302.511 317.834 302.507L318.748 304.339C318.019 304.335 317.336 304.446 316.7 304.671L317.388 307.036C318.011 306.926 318.532 306.862 318.949 306.843C319.358 306.829 319.776 306.918 320.203 307.108C320.626 307.312 320.998 307.673 321.317 308.191C321.828 309.021 321.949 309.846 321.68 310.667C321.411 311.488 320.775 312.207 319.773 312.825C319.635 312.91 319.431 313.024 319.161 313.166L319.479 314.293L318.406 314.757L318.069 313.57C317.759 313.666 317.453 313.741 317.153 313.795L316.384 311.908C316.824 311.888 317.207 311.831 317.531 311.738L316.859 309.399C316.065 309.542 315.373 309.54 314.781 309.392C314.186 309.258 313.673 308.841 313.242 308.141C312.726 307.303 312.609 306.475 312.892 305.657C313.175 304.839 313.826 304.117 314.846 303.489L315.118 303.321L314.743 302.015L315.803 301.559ZM318.623 311.334L318.817 311.215C319.223 310.964 319.488 310.688 319.612 310.386C319.74 310.092 319.722 309.811 319.557 309.543C319.414 309.31 319.224 309.176 318.989 309.142C318.754 309.109 318.425 309.126 318.003 309.196L318.623 311.334ZM315.667 305.2C315.329 305.444 315.102 305.714 314.987 306.011C314.869 306.323 314.89 306.608 315.049 306.867C315.161 307.048 315.315 307.162 315.51 307.209C315.702 307.269 315.947 307.28 316.244 307.24L315.667 305.2ZM308.272 306.196L308.639 307.49C309.239 307.263 309.793 307.148 310.303 307.144L311.217 308.977C310.488 308.973 309.805 309.083 309.169 309.308L309.857 311.673C310.481 311.564 311.001 311.499 311.419 311.48C311.827 311.467 312.245 311.555 312.672 311.745C313.096 311.949 313.467 312.31 313.786 312.829C314.297 313.658 314.418 314.484 314.149 315.305C313.88 316.126 313.244 316.845 312.242 317.462C312.104 317.547 311.9 317.661 311.63 317.803L311.948 318.93L310.875 319.394L310.538 318.208C310.228 318.303 309.922 318.378 309.622 318.432L308.853 316.546C309.293 316.525 309.676 316.468 310 316.376L309.328 314.037C308.535 314.18 307.842 314.178 307.25 314.029C306.655 313.895 306.142 313.478 305.711 312.779C305.195 311.94 305.078 311.112 305.361 310.295C305.644 309.477 306.296 308.754 307.315 308.126L307.587 307.959L307.212 306.652L308.272 306.196ZM311.092 315.972L311.286 315.852C311.692 315.602 311.957 315.326 312.081 315.023C312.21 314.729 312.192 314.448 312.027 314.181C311.883 313.947 311.693 313.814 311.458 313.78C311.223 313.746 310.894 313.764 310.472 313.833L311.092 315.972ZM308.136 309.837C307.798 310.081 307.571 310.352 307.457 310.649C307.338 310.96 307.359 311.245 307.519 311.505C307.63 311.686 307.784 311.8 307.979 311.846C308.172 311.907 308.416 311.917 308.713 311.877L308.136 309.837ZM300.741 310.834L301.108 312.127C301.708 311.901 302.263 311.786 302.772 311.782L303.686 313.614C302.957 313.61 302.274 313.721 301.638 313.946L302.326 316.311C302.95 316.201 303.47 316.137 303.888 316.118C304.296 316.105 304.714 316.193 305.141 316.383C305.565 316.587 305.936 316.948 306.255 317.466C306.766 318.296 306.887 319.121 306.618 319.942C306.349 320.763 305.713 321.483 304.711 322.1C304.573 322.185 304.369 322.299 304.099 322.441L304.417 323.568L303.345 324.032L303.007 322.845C302.697 322.941 302.391 323.016 302.091 323.07L301.322 321.183C301.763 321.163 302.145 321.106 302.469 321.014L301.797 318.674C301.004 318.818 300.311 318.815 299.719 318.667C299.124 318.533 298.611 318.116 298.18 317.416C297.664 316.578 297.548 315.75 297.83 314.932C298.113 314.114 298.765 313.392 299.784 312.764L300.056 312.596L299.681 311.29L300.741 310.834ZM303.561 320.609L303.755 320.49C304.161 320.24 304.426 319.963 304.55 319.661C304.679 319.367 304.661 319.086 304.496 318.818C304.352 318.585 304.163 318.451 303.927 318.417C303.692 318.384 303.363 318.401 302.941 318.471L303.561 320.609ZM300.605 314.475C300.267 314.719 300.041 314.989 299.926 315.287C299.807 315.598 299.828 315.883 299.988 316.142C300.099 316.324 300.253 316.438 300.448 316.484C300.641 316.544 300.885 316.555 301.182 316.515L300.605 314.475Z" fill="#F0F0FF"/>
<path d="M450.536 214.456C446.942 193.647 445.201 152.482 466.994 154.298C488.787 156.114 487.425 195.16 484.02 214.456M516.369 222.402C513.721 193.079 512.851 128.078 528.287 134.435C543.724 140.791 543.8 198.376 541.908 226.374" stroke="#706E6F" stroke-width="5.67528"/>
<path d="M523.179 469.844H387.54L404.566 208.781H501.046L575.959 228.644L611.714 459.628L523.179 469.844Z" fill="#D25400"/>
<path d="M523.747 469.844L501.046 208.914H451.671V469.844H523.747Z" fill="#DD6A11"/>
<path d="M451.671 208.781H403.998L387.54 469.844H451.671V208.781Z" fill="#E77E22"/>
<rect x="419.499" y="226.43" width="26.1063" height="41.9971" transform="rotate(49.2326 419.499 226.43)" fill="#D84141"/>
<path d="M416.435 236.257L417.072 237.643C417.705 237.285 418.307 237.059 418.879 236.966L420.223 238.862C419.404 238.985 418.658 239.227 417.984 239.591L419.167 242.123C419.847 241.892 420.42 241.729 420.885 241.635C421.341 241.549 421.825 241.575 422.337 241.714C422.847 241.869 423.327 242.209 423.775 242.735C424.493 243.576 424.772 244.481 424.613 245.449C424.455 246.417 423.867 247.334 422.85 248.201C422.71 248.32 422.501 248.483 422.223 248.69L422.777 249.898L421.654 250.606L421.069 249.334C420.738 249.495 420.408 249.632 420.08 249.745L418.89 247.763C419.38 247.663 419.799 247.533 420.146 247.373L418.986 244.866C418.12 245.165 417.343 245.283 416.653 245.22C415.963 245.173 415.315 244.795 414.709 244.085C413.984 243.235 413.71 242.327 413.884 241.36C414.059 240.394 414.664 239.469 415.698 238.588L415.974 238.352L415.326 236.953L416.435 236.257ZM421.301 246.729L421.498 246.561C421.91 246.21 422.159 245.854 422.245 245.493C422.338 245.141 422.269 244.829 422.037 244.558C421.835 244.321 421.6 244.204 421.33 244.207C421.06 244.21 420.694 244.287 420.233 244.439L421.301 246.729ZM416.917 240.364C416.58 240.696 416.373 241.039 416.296 241.393C416.218 241.762 416.291 242.078 416.515 242.341C416.672 242.525 416.864 242.627 417.091 242.645C417.317 242.679 417.593 242.648 417.92 242.551L416.917 240.364ZM408.796 242.77L409.433 244.156C410.066 243.798 410.669 243.572 411.24 243.479L412.584 245.375C411.765 245.498 411.019 245.741 410.345 246.104L411.528 248.637C412.208 248.405 412.781 248.242 413.246 248.148C413.702 248.062 414.186 248.088 414.698 248.227C415.208 248.382 415.688 248.722 416.136 249.248C416.854 250.09 417.133 250.994 416.974 251.962C416.816 252.93 416.228 253.847 415.211 254.714C415.071 254.834 414.862 254.997 414.584 255.203L415.138 256.412L414.015 257.119L413.43 255.847C413.099 256.009 412.769 256.146 412.441 256.259L411.251 254.277C411.741 254.177 412.16 254.047 412.508 253.886L411.347 251.38C410.481 251.679 409.704 251.796 409.014 251.733C408.324 251.687 407.676 251.308 407.07 250.598C406.346 249.748 406.071 248.84 406.245 247.873C406.42 246.907 407.025 245.983 408.059 245.101L408.335 244.866L407.687 243.466L408.796 242.77ZM413.662 253.243L413.859 253.075C414.271 252.723 414.52 252.367 414.606 252.007C414.699 251.655 414.63 251.343 414.398 251.071C414.196 250.834 413.961 250.717 413.691 250.721C413.421 250.724 413.055 250.801 412.594 250.952L413.662 253.243ZM409.278 246.877C408.941 247.21 408.734 247.553 408.657 247.906C408.579 248.276 408.652 248.592 408.876 248.855C409.033 249.039 409.225 249.14 409.452 249.158C409.678 249.192 409.954 249.161 410.281 249.064L409.278 246.877ZM401.157 249.283L401.794 250.67C402.427 250.311 403.03 250.086 403.601 249.992L404.945 251.888C404.126 252.011 403.38 252.254 402.706 252.617L403.889 255.15C404.569 254.918 405.142 254.755 405.607 254.662C406.063 254.575 406.547 254.602 407.059 254.74C407.569 254.895 408.049 255.236 408.497 255.762C409.215 256.603 409.494 257.508 409.335 258.475C409.177 259.443 408.589 260.361 407.572 261.227C407.432 261.347 407.223 261.51 406.945 261.717L407.499 262.925L406.376 263.632L405.791 262.36C405.46 262.522 405.13 262.659 404.802 262.772L403.612 260.79C404.102 260.69 404.521 260.56 404.869 260.4L403.708 257.893C402.842 258.192 402.065 258.31 401.376 258.247C400.685 258.2 400.037 257.822 399.431 257.112C398.707 256.262 398.432 255.353 398.607 254.387C398.781 253.42 399.386 252.496 400.42 251.614L400.696 251.379L400.048 249.979L401.157 249.283ZM406.023 259.756L406.22 259.588C406.632 259.237 406.881 258.881 406.967 258.52C407.06 258.168 406.991 257.856 406.759 257.584C406.557 257.348 406.322 257.231 406.052 257.234C405.782 257.237 405.416 257.314 404.955 257.465L406.023 259.756ZM401.639 253.39C401.302 253.723 401.095 254.066 401.018 254.419C400.94 254.789 401.013 255.105 401.237 255.368C401.394 255.552 401.586 255.653 401.813 255.671C402.039 255.706 402.315 255.674 402.642 255.578L401.639 253.39Z" fill="#F0F0FF"/>
</svg>
