<svg width="35" height="35" viewBox="0 0 35 35" fill="none" xmlns="http://www.w3.org/2000/svg">
<path d="M29.2836 16.6542L23.3919 8.41466C22.8961 7.71466 22.094 7.29175 21.2336 7.29175C19.0607 7.29175 17.8065 9.74175 19.0607 11.5063L23.3336 17.5001L19.0607 23.4938C17.7919 25.2584 19.0607 27.7084 21.2336 27.7084C22.094 27.7084 22.9107 27.2855 23.4065 26.5855L29.2982 18.3459C29.6482 17.8355 29.6482 17.1647 29.2836 16.6542Z" fill="white"/>
<path d="M19.0746 16.6542L13.1975 8.41466C12.6871 7.71466 11.885 7.29175 11.0246 7.29175C8.85168 7.29175 7.58293 9.74175 8.85168 11.5063L13.1246 17.5001L8.85168 23.4938C7.58293 25.2584 8.85168 27.7084 11.0246 27.7084C11.885 27.7084 12.7017 27.2855 13.1975 26.5855L19.0892 18.3459C19.4392 17.8355 19.4392 17.1647 19.0746 16.6542Z" fill="white"/>
</svg>
