<svg width="213" height="133" viewBox="0 0 213 133" fill="none" xmlns="http://www.w3.org/2000/svg">
<rect width="213" height="133" rx="24" fill="white"/>
<path d="M116.777 17H25C21.134 17 18 20.134 18 24V110C18 113.866 21.134 117 25 117H190C193.866 117 197 113.866 197 110V24C197 20.134 193.866 17 190 17H147.244C143.378 17 140.244 20.134 140.244 24V89" stroke="#05114F" stroke-width="10"/>
<path d="M37.48 46.376H51.752C55.8906 46.376 59.1546 47.3787 61.544 49.384C63.976 51.3467 65.192 54.0347 65.192 57.448C65.192 61.3307 63.5066 64.3174 60.136 66.408C64.616 68.2 66.856 71.3574 66.856 75.88C66.856 78.44 66.216 80.7227 64.936 82.728C63.656 84.6907 61.864 86.2267 59.56 87.336C57.2986 88.4454 54.7386 89 51.88 89H37.48V46.376ZM49.576 63.72C51.7093 63.72 53.352 63.2294 54.504 62.248C55.6986 61.2667 56.296 59.9014 56.296 58.152C56.296 54.9947 54.3333 53.416 50.408 53.416H46.376V63.72H49.576ZM50.472 81.896C52.776 81.896 54.568 81.3627 55.848 80.296C57.1706 79.2294 57.832 77.8 57.832 76.008C57.832 74.3867 57.2773 73.128 56.168 72.232C55.0586 71.336 53.4586 70.888 51.368 70.888H46.376V81.896H50.472Z" fill="#05114F"/>
<path d="M77.125 42.28H87.429V50.6H77.125V42.28ZM72.133 81.256H78.277V63.784H72.133V56.04H87.301V81.256H92.805V89H72.133V81.256Z" fill="#05114F"/>
<path d="M108.464 89.96C104.752 89.96 101.829 88.552 99.696 85.736C97.6053 82.8774 96.56 78.9094 96.56 73.832C96.56 67.816 98.1173 63.208 101.232 60.008C104.389 56.7654 108.869 55.144 114.672 55.144C115.397 55.144 116.485 55.1867 117.936 55.272V42.28H126.832V89H118.064L118.256 84.712H118C116.891 86.4187 115.525 87.72 113.904 88.616C112.325 89.512 110.512 89.96 108.464 89.96ZM110.512 82.088C111.877 82.088 113.2 81.512 114.48 80.36C115.76 79.1654 116.912 77.48 117.936 75.304V63.592C116.485 63.208 115.099 63.016 113.776 63.016C111.088 63.016 109.04 63.8907 107.632 65.64C106.267 67.3894 105.584 69.9494 105.584 73.32C105.584 76.0507 106.011 78.2054 106.864 79.784C107.76 81.32 108.976 82.088 110.512 82.088Z" fill="#05114F"/>
<path d="M135.929 46.376H145.209V89H135.929V46.376Z" fill="#05114F"/>
<path d="M166.443 89.96C163.371 89.96 160.982 89.192 159.275 87.656C157.611 86.0774 156.779 83.8587 156.779 81V63.784H151.659V56.04H156.779V49C159.809 48.488 162.795 48.104 165.739 47.848V56.04H174.059V63.784H165.739V79.336C165.739 80.232 165.995 80.9147 166.507 81.384C167.062 81.8534 167.83 82.088 168.811 82.088C170.006 82.088 171.371 81.8107 172.907 81.256L174.891 88.04C172.161 89.32 169.345 89.96 166.443 89.96Z" fill="#05114F"/>
</svg>
