<svg fill="#05114F" id="chat-icon" width="17" height="16" viewBox="0 0 17 16" xmlns="http://www.w3.org/2000/svg">
<path d="M13.745 0.428589H3.01991C2.41038 0.428589 1.82582 0.671702 1.39482 1.10445C0.963814 1.53719 0.72168 2.12412 0.72168 2.73611V14.2737C0.721914 14.41 0.758213 14.5438 0.826862 14.6614C0.895512 14.7789 0.994046 14.8761 1.11238 14.9429C1.22687 15.008 1.35615 15.0425 1.48776 15.0429C1.62525 15.0428 1.76021 15.0056 1.87846 14.9352L5.31814 12.843C5.44528 12.767 5.59162 12.7296 5.73948 12.7354H13.745C14.3545 12.7354 14.9391 12.4922 15.3701 12.0595C15.8011 11.6268 16.0432 11.0398 16.0432 10.4278V2.73611C16.0432 2.12412 15.8011 1.53719 15.3701 1.10445C14.9391 0.671702 14.3545 0.428589 13.745 0.428589ZM5.31814 7.35115C5.16662 7.35115 5.01851 7.30603 4.89253 7.22152C4.76655 7.137 4.66836 7.01687 4.61038 6.87632C4.55239 6.73577 4.53722 6.58112 4.56678 6.43191C4.59634 6.28271 4.6693 6.14566 4.77644 6.03809C4.88358 5.93051 5.02008 5.85726 5.16869 5.82758C5.31729 5.7979 5.47132 5.81313 5.6113 5.87135C5.75129 5.92957 5.87093 6.02815 5.95511 6.15464C6.03929 6.28113 6.08422 6.42984 6.08422 6.58197C6.08422 6.78597 6.0035 6.98161 5.85984 7.12586C5.71617 7.27011 5.52132 7.35115 5.31814 7.35115V7.35115ZM8.38245 7.35115C8.23093 7.35115 8.08282 7.30603 7.95684 7.22152C7.83086 7.137 7.73267 7.01687 7.67468 6.87632C7.6167 6.73577 7.60153 6.58112 7.63109 6.43191C7.66065 6.28271 7.73361 6.14566 7.84075 6.03809C7.94789 5.93051 8.08439 5.85726 8.23299 5.82758C8.3816 5.7979 8.53563 5.81313 8.67561 5.87135C8.81559 5.92957 8.93524 6.02815 9.01942 6.15464C9.10359 6.28113 9.14852 6.42984 9.14852 6.58197C9.14852 6.78597 9.06781 6.98161 8.92414 7.12586C8.78048 7.27011 8.58562 7.35115 8.38245 7.35115ZM11.4468 7.35115C11.2952 7.35115 11.1471 7.30603 11.0211 7.22152C10.8952 7.137 10.797 7.01687 10.739 6.87632C10.681 6.73577 10.6658 6.58112 10.6954 6.43191C10.725 6.28271 10.7979 6.14566 10.9051 6.03809C11.0122 5.93051 11.1487 5.85726 11.2973 5.82758C11.4459 5.7979 11.5999 5.81313 11.7399 5.87135C11.8799 5.92957 11.9995 6.02815 12.0837 6.15464C12.1679 6.28113 12.2128 6.42984 12.2128 6.58197C12.2128 6.78597 12.1321 6.98161 11.9885 7.12586C11.8448 7.27011 11.6499 7.35115 11.4468 7.35115Z" />
</svg>
